
<svg xmlns:dc="http://purl.org/dc/elements/1.1/" xmlns:cc="http://creativecommons.org/ns#" xmlns:rdf="http://www.w3.org/1999/02/22-rdf-syntax-ns#" xmlns:svg="http://www.w3.org/2000/svg" xmlns="http://www.w3.org/2000/svg" xmlns:xlink="http://www.w3.org/1999/xlink" xmlns:inkscape="http://www.inkscape.org/namespaces/inkscape" height="600" width="600">

<!-- květní diagram vygenerovaný webovou aplikací od Tomáše Keberta, která byla vytvořena v rámci bakalářské práce na Pedagogické fakultě Univerzity Karlovy -->
<!-- floral diagram generated by a web application made by Tomáš Kebert, which was created as a part of bachelor thesis on the Faculty of Pedagogy, Charles University in Prague -->
<!-- https://sites.google.com/site/kvetnidiagramy/ -->

<g id="vrstva" inkscape:groupmode="layer">
<!-- <circle cx="300" cy="300" r="150" style="fill: grey;" /> -->

<!-- nadpisy klonovaných součástí -->
<text x="300" y="-250" style="fill: black; text-anchor: middle; dominant-baseline: central; font-weight: bold; font-size: 16pt;">Klonované součásti</text>
<text x="0" y="-210" style="fill: black; text-anchor: middle; dominant-baseline: central;">apokarpní<tspan x="0" y="-195">pestík</tspan></text>
<text x="80" y="-210" style="fill: black; text-anchor: middle; dominant-baseline: central;">vajíčko</text>
<text x="160" y="-210" style="fill: black; text-anchor: middle; dominant-baseline: central;">tyčinka</text>
<text x="240" y="-210" style="fill: black; text-anchor: middle; dominant-baseline: central;">staminodium</text>
<text x="320" y="-210" style="fill: black; text-anchor: middle; dominant-baseline: central;">staminodiální<tspan x="320" y="-195">nektárium</tspan></text>
<text x="400" y="-210" style="fill: black; text-anchor: middle; dominant-baseline: central;">chybějící<tspan x="400" y="-195">tyčinka</tspan></text>
<text x="480" y="-210" style="fill: black; text-anchor: middle; dominant-baseline: central;">nektárium<tspan x="480" y="-195">(na kalichu)</tspan></text>
<text x="560" y="-210" style="fill: black; text-anchor: middle; dominant-baseline: central;">nektárium<tspan x="560" y="-195">(na ostatních</tspan>
<tspan x="560" y="-180">obalech)</tspan></text>

<defs><pattern id="srafovani_pestik" height="7" width="10" patternUnits="userSpaceOnUse">
<rect height="10" width="10" y="0" x="0" style="fill: ;"></rect>
<rect height="2" width="10" y="0" x="0" style="fill: white;"></rect></pattern></defs><g transform="translate(0,0)"><path d="M312.26739801888,132.9498250649 C363.19658352249,127.70665793075 430.49504178508,146.17404250759 464.47987481376,205.0375 C498.46470784244,263.90095749241 480.80870289614,331.41682427176 450.80339420987,372.90120914486 A 167.5,167.5 0 0,0 312.26739801888,132.9498250649Z" style="fill:white; stroke-width: 2; stroke: black; stroke-linejoin: round; stroke-linecap: round;"></path><path d="M438.53599619099,394.14896579023 C417.61211937364,440.87651779749 367.96966605735,489.925 300,489.925 C232.03033394265,489.925 182.38788062636,440.87651779749 161.46400380901,394.14896579023 A 167.5,167.5 0 0,0 438.53599619099,394.14896579023Z" style="fill:white; stroke-width: 2; stroke: black; stroke-linejoin: round; stroke-linecap: round;"></path><path d="M149.19660579013,372.90120914486 C119.19129710386,331.41682427176 101.53529215756,263.90095749241 135.52012518624,205.0375 C169.50495821492,146.17404250759 236.80341647751,127.70665793075 287.73260198112,132.9498250649 A 167.5,167.5 0 0,0 149.19660579013,372.90120914486Z" style="fill:white; stroke-width: 2; stroke: black; stroke-linejoin: round; stroke-linecap: round;"></path><path d="" style="fill:white; stroke-width: 2; stroke: black; stroke-linejoin: round; stroke-linecap: round;"></path></g><g transform="translate(1.1368683772162E-13,0)"><path d="M421.5430341393,241.24380158474 C448.78847916635,274.14692197467 463.72481013925,331.27031037925 436.33404919077,378.7125 C408.94328824228,426.15468962075 352.00481724722,441.78114176118 309.88715661223,434.6374544253 A 135,135 0 0,0 421.5430341393,241.24380158474Z" style="fill:white; stroke-width: 2; stroke: black; stroke-linejoin: round; stroke-linecap: round;"></path><path d="M290.11284338777,434.6374544253 C247.99518275278,441.78114176118 191.05671175772,426.15468962075 163.66595080923,378.7125 C136.27518986075,331.27031037925 151.21152083365,274.14692197467 178.4569658607,241.24380158474 A 135,135 0 0,0 290.11284338777,434.6374544253Z" style="fill:white; stroke-width: 2; stroke: black; stroke-linejoin: round; stroke-linecap: round;"></path><path d="M188.34412247293,224.11874398996 C203.21633808087,184.07193626415 245.21847810303,142.575 300,142.575 C354.78152189697,142.575 396.78366191913,184.07193626415 411.65587752707,224.11874398996 A 135,135 0 0,0 188.34412247293,224.11874398996Z" style="fill:white; stroke-width: 2; stroke: black; stroke-linejoin: round; stroke-linecap: round;"></path><path d="" style="fill:white; stroke-width: 2; stroke: black; stroke-linejoin: round; stroke-linecap: round;"></path><defs><clipPath id="orezspojeni"><path d="M421.5430341393,241.24380158474 A135,135 0 0,1 309.88715661223,434.6374544253 A135,135 0 0,1 290.11284338777,434.6374544253 A135,135 0 0,1 178.4569658607,241.24380158474 A135,135 0 0,1 188.34412247293,224.11874398996 A135,135 0 0,1 411.65587752707,224.11874398996 A135,135 0 0,1 421.5430341393,241.24380158474Z" transform="translate(1.1368683772162E-13,0)"></path></clipPath></defs></g><!-- PESTÍK -->

<defs>
<pattern id="tecky" width="12" height="12" patternUnits="userSpaceOnUse" patternTransform="scale(0.65)">
<rect x="0" y="0" width="12" height="12" fill="white"></rect>
<circle id="kruh" cx="0" cy="0" r="1.75" fill="black"></circle>
<use xlink:href="#kruh" x="6" y="6"></use><use xlink:href="#kruh" x="0" y="12"></use><use xlink:href="#kruh" x="12" y="0"></use><use xlink:href="#kruh" x="12" y="12"></use>
</pattern>
</defs>


<g transform="translate (480,-150) rotate(-90)"><g id="nektariumkal"><ellipse cx="0" cy="0" rx="10" ry="10" style="fill: url(#tecky); stroke-width: 2; stroke: black"></ellipse></g></g>

<g transform="translate (560,-150) rotate(-90)"><g id="nektarium"><ellipse cx="0" cy="0" rx="10" ry="10" style="fill: url(#tecky); stroke-width: 2; stroke: black"></ellipse></g></g>

<g transform="translate(160 -150) rotate(-90)">
<g id="tycinky" transform="scale(1.2)">
<path d="m -1.5907291,-14 c -3.865993,0 -7,3.134007 -7,7 0,3.865993 3.134007,7 7,7 -3.865993,0 -7,3.134007 -7,7 0,3.865993 3.134007,7 7,7 3.865993,0 6.475568,-2.249546 8,-5 2.908611,-5.247855 2.908611,-12.752145 0,-18 -1.524432,-2.750454 -4.134007,-5 -8,-5 z" style="stroke:black;stroke-width:1.6666666666667;stroke-linejoin:round;fill:white"></path> </g>
</g>

<g transform="translate(240 -150) rotate(-90)">
<g id="staminodium" transform="scale(1.2)">
<path d="M 9,0 A 9,12 0 1 1 -9,0 9,12 0 1 1 9,0 z" style="stroke:black;stroke-width:1.6666666666667;stroke-linejoin:round;fill:white"></path> </g>
</g>

<g transform="translate(320 -150) rotate(-90)">
<g id="staminek" transform="scale(1.2)">
<path d="M 9,0 A 9,12 0 1 1 -9,0 9,12 0 1 1 9,0 z" style="stroke:black;stroke-width:1.6666666666667;stroke-linejoin:round;fill:url(#tecky)"></path> </g>
</g>

<g transform="translate(400 -150) rotate(-90)">
<g id="tycvyn" transform="scale(1.2)" style="fill:black; stroke:black; stroke-width: 1.6666666666667;stroke-linejoin:round; stroke-linecap: round;">
<path transform="translate(-75 -75)" d="m 65.48016,75.000001 19.039685,0"></path>
<path transform="translate(-75 -75)" d="m 70.240081,66.750002 9.519842,16.5"></path>
<path transform="translate(-75 -75)" d="M 79.759925,66.750001 70.240083,83.25"></path></g>
</g>
<use xlink:href="#tycinky" x="392.37604307034" y="246.66666666667" transform="rotate(330 392.37604307034,246.66666666667)"></use><use xlink:href="#tycinky" x="300" y="406.66666666667" transform="rotate(450 300,406.66666666667)"></use><use xlink:href="#tycinky" x="207.62395692966" y="246.66666666667" transform="rotate(570 207.62395692966,246.66666666667)"></use><use xlink:href="#tycinky" x="367.83865662978" y="339.16666666667" transform="rotate(750 367.83865662978,339.16666666667)"></use><use xlink:href="#tycinky" x="232.16134337022" y="339.16666666667" transform="rotate(870 232.16134337022,339.16666666667)"></use><use xlink:href="#tycinky" x="300" y="221.66666666667" transform="rotate(990 300,221.66666666667)"></use>
<!-- VAJÍČKA II -->
<g transform="translate(80 -150) rotate(-90)">
<g id="vajicko" transform="
"><path d="M 14.814814,-3.75 C 11.851851,-3.75 0,0 0,0 0,0 11.851851,3.75 14.814814,3.75 17.777777,3.75 20,2.133038 20,0 20,-2.133038 17.777777,-3.75 14.814814,-3.75 z" style="fill:black"></path></g>
</g>

<g transform="translate(-240 -200)">
<g id="vajickootoc" transform="scale(1,-1)">
<use xlink:href="#vajicko" x="0" y="0"></use>
</g>
</g>

<g transform="translate(-240 -200)">
<g id="vajicka">
</g>
</g>

<g transform="translate(0 -150) rotate(-90)">
<g id="pesnes" transform="scale(1)">
<path style="fill: white; stroke: none;" d="m -13.46875,0.5 c -3.664921,-1.9e-7 -6.431075,2.9320928 -4.5625,6.40625 C -15.690664,11.257996 -7.4037718,14 0,14 11.045695,14 20,7.7319864 20,0 20,-7.7319864 11.045695,-14 0,-14 c -7.4037718,0 -15.690664,2.742004 -18.03125,7.09375 -1.868575,3.4741572 0.897579,6.40625019 4.5625,6.40625 z"></path>

<path style="stroke:none; stroke-width: 6;stroke-linejoin:round;fill: none; stroke-linecap: round;" d="M -6.78125,5.8125 C -7.1083562,2.1383112 -9.803829,0.50000019 -13.46875,0.5 c -3.664921,-1.9e-7 -6.431075,2.9320928 -4.5625,6.40625 C -15.690664,11.257996 -7.4037718,14 0,14 11.045695,14 20,7.7319864 20,0 20,-7.7319864 11.045695,-14 0,-14 c -7.4037718,0 -15.690664,2.742004 -18.03125,7.09375 -1.868575,3.4741572 0.897579,6.40625019 4.5625,6.40625 3.664921,-1.9e-7 6.3603938,-1.6383112 6.6875,-5.3125"></path>

<path style="stroke:black; stroke-width: 2;stroke-linejoin:round;fill: none; stroke-linecap: round;" d="M -6.78125,5.8125 C -7.1083562,2.1383112 -9.803829,0.50000019 -13.46875,0.5 c -3.664921,-1.9e-7 -6.431075,2.9320928 -4.5625,6.40625 C -15.690664,11.257996 -7.4037718,14 0,14 11.045695,14 20,7.7319864 20,0 20,-7.7319864 11.045695,-14 0,-14 c -7.4037718,0 -15.690664,2.742004 -18.03125,7.09375 -1.868575,3.4741572 0.897579,6.40625019 4.5625,6.40625 3.664921,-1.9e-7 6.3603938,-1.6383112 6.6875,-5.3125"></path>
</g>
</g>

<path d="M291.68615612367,295.2 A23.529411764706,14.921568627451 270 1,1 308.31384387633,295.2 A23.529411764706,14.921568627451 390 1,1 300,309.6 A23.529411764706,14.921568627451 510 1,1 291.68615612367,295.2Z" style="fill: white; stroke: black; stroke-linejoin: round; stroke-width: 2"></path><path d="M291.68615612367,295.2 A23.529411764706,14.921568627451 270 1,1 308.31384387633,295.2 A23.529411764706,14.921568627451 390 1,1 300,309.6 A23.529411764706,14.921568627451 510 1,1 291.68615612367,295.2Z" style="stroke: black; stroke-width: 4;"></path><path d="M291.68615612367,295.2 A23.529411764706,14.921568627451 270 1,1 308.31384387633,295.2 A23.529411764706,14.921568627451 390 1,1 300,309.6 A23.529411764706,14.921568627451 510 1,1 291.68615612367,295.2Z" style="fill: white;"></path>
<defs>
<clipPath clipPathUnits="userSpaceOnUse" id="orez">
<path d="M291.68615612367,295.2 A23.529411764706,14.921568627451 270 1,1 308.31384387633,295.2 A23.529411764706,14.921568627451 390 1,1 300,309.6 A23.529411764706,14.921568627451 510 1,1 291.68615612367,295.2Z" style="fill: white;"></path></clipPath>
</defs>

<g clip-path="url(#orez)"><path d="M300,300 L216.03017684906,251.52M300,300 L383.96982315094,251.52M300,300 L300,396.96" style="fill: none; stroke:black; stroke-linecap: round; stroke-width: 4;"></path></g>
<!-- VAJÍČKA II -->
</g></svg>
