
<svg xmlns:dc="http://purl.org/dc/elements/1.1/" xmlns:cc="http://creativecommons.org/ns#" xmlns:rdf="http://www.w3.org/1999/02/22-rdf-syntax-ns#" xmlns:svg="http://www.w3.org/2000/svg" xmlns="http://www.w3.org/2000/svg" xmlns:xlink="http://www.w3.org/1999/xlink" xmlns:inkscape="http://www.inkscape.org/namespaces/inkscape" height="600" width="600">

<!-- květní diagram vygenerovaný webovou aplikací od Tomáše Keberta, která byla vytvořena v rámci bakalářské práce na Pedagogické fakultě Univerzity Karlovy -->
<!-- floral diagram generated by a web application made by Tomáš Kebert, which was created as a part of bachelor thesis on the Faculty of Pedagogy, Charles University in Prague -->
<!-- https://sites.google.com/site/kvetnidiagramy/ -->

<g id="vrstva" inkscape:groupmode="layer">
<!-- <circle cx="300" cy="300" r="150" style="fill: grey;" /> -->

<!-- nadpisy klonovaných součástí -->
<text x="300" y="-250" style="fill: black; text-anchor: middle; dominant-baseline: central; font-weight: bold; font-size: 16pt;">Klonované součásti</text>
<text x="0" y="-210" style="fill: black; text-anchor: middle; dominant-baseline: central;">apokarpní<tspan x="0" y="-195">pestík</tspan></text>
<text x="80" y="-210" style="fill: black; text-anchor: middle; dominant-baseline: central;">vajíčko</text>
<text x="160" y="-210" style="fill: black; text-anchor: middle; dominant-baseline: central;">tyčinka</text>
<text x="240" y="-210" style="fill: black; text-anchor: middle; dominant-baseline: central;">staminodium</text>
<text x="320" y="-210" style="fill: black; text-anchor: middle; dominant-baseline: central;">staminodiální<tspan x="320" y="-195">nektárium</tspan></text>
<text x="400" y="-210" style="fill: black; text-anchor: middle; dominant-baseline: central;">chybějící<tspan x="400" y="-195">tyčinka</tspan></text>
<text x="480" y="-210" style="fill: black; text-anchor: middle; dominant-baseline: central;">nektárium<tspan x="480" y="-195">(na kalichu)</tspan></text>
<text x="560" y="-210" style="fill: black; text-anchor: middle; dominant-baseline: central;">nektárium<tspan x="560" y="-195">(na ostatních</tspan>
<tspan x="560" y="-180">obalech)</tspan></text>

<defs><pattern id="srafovani_pestik" height="7" width="10" patternUnits="userSpaceOnUse">
<rect height="10" width="10" y="0" x="0" style="fill: ;"></rect>
<rect height="2" width="10" y="0" x="0" style="fill: white;"></rect></pattern></defs><defs><pattern id="srafovani_0_167.5" patternTransform="rotate(270)" height="7" width="10" patternUnits="userSpaceOnUse">
<rect height="10" width="10" y="0" x="0" style="fill: white;"></rect>
<rect height="2" width="10" y="0" x="0" style="fill: black;"></rect></pattern></defs><defs><pattern id="srafovani_1_167.5" patternTransform="rotate(342)" height="7" width="10" patternUnits="userSpaceOnUse">
<rect height="10" width="10" y="0" x="0" style="fill: white;"></rect>
<rect height="2" width="10" y="0" x="0" style="fill: black;"></rect></pattern></defs><defs><pattern id="srafovani_2_167.5" patternTransform="rotate(414)" height="7" width="10" patternUnits="userSpaceOnUse">
<rect height="10" width="10" y="0" x="0" style="fill: white;"></rect>
<rect height="2" width="10" y="0" x="0" style="fill: black;"></rect></pattern></defs><defs><pattern id="srafovani_3_167.5" patternTransform="rotate(486)" height="7" width="10" patternUnits="userSpaceOnUse">
<rect height="10" width="10" y="0" x="0" style="fill: white;"></rect>
<rect height="2" width="10" y="0" x="0" style="fill: black;"></rect></pattern></defs><defs><pattern id="srafovani_4_167.5" patternTransform="rotate(558)" height="7" width="10" patternUnits="userSpaceOnUse">
<rect height="10" width="10" y="0" x="0" style="fill: white;"></rect>
<rect height="2" width="10" y="0" x="0" style="fill: black;"></rect></pattern></defs><g transform="translate(-1.1368683772162E-13,0)"><path d="M207.59931666974,160.29186236979 A134,134 0 0,1 291.17338008965,115.9206015949 L300,106.11764705882L308.82661991035,115.9206015949A134,134 0 0,1 392.40068333026,160.29186236979 A 167.5,167.5 0 0,0 207.59931666974,160.29186236979Z" style="fill:url(#srafovani_0_167.5); stroke-width: 2; stroke: black; stroke-linejoin: round; stroke-linecap: round;"></path><path d="M404.31695323176,168.94953922842 A134,134 0 0,1 472.34233581367,234.72172319591 L484.39307515934,240.08705803177L477.79748692405,251.51095196111A134,134 0 0,1 461.42371611358,344.70608321116 A 167.5,167.5 0 0,0 404.31695323176,168.94953922842Z" style="fill:url(#srafovani_1_167.5); stroke-width: 2; stroke: black; stroke-linejoin: round; stroke-linecap: round;"></path><path d="M456.87210603032,358.71449863204 A134,134 0 0,1 415.34004114375,443.73520461315 L413.96118773859,456.85411843881L401.05827012303,454.11151863494A134,134 0 0,1 307.36465981824,467.33801655859 A 167.5,167.5 0 0,0 456.87210603032,358.71449863204Z" style="fill:url(#srafovani_2_167.5); stroke-width: 2; stroke: black; stroke-linejoin: round; stroke-linecap: round;"></path><path d="M292.63534018176,467.33801655859 A134,134 0 0,1 198.94172987697,454.11151863494 L186.03881226141,456.85411843881L184.65995885625,443.73520461315A134,134 0 0,1 143.12789396968,358.71449863204 A 167.5,167.5 0 0,0 292.63534018176,467.33801655859Z" style="fill:url(#srafovani_3_167.5); stroke-width: 2; stroke: black; stroke-linejoin: round; stroke-linecap: round;"></path><path d="M138.57628388642,344.70608321116 A134,134 0 0,1 122.20251307595,251.51095196111 L115.60692484066,240.08705803177L127.65766418633,234.72172319591A134,134 0 0,1 195.68304676824,168.94953922842 A 167.5,167.5 0 0,0 138.57628388642,344.70608321116Z" style="fill:url(#srafovani_4_167.5); stroke-width: 2; stroke: black; stroke-linejoin: round; stroke-linecap: round;"></path><path d="" style="fill:white; stroke-width: 2; stroke: black; stroke-linejoin: round; stroke-linecap: round;"></path></g><g transform="translate(0,0)"><path d="M305.93569597291,165.13055381845 C331.61932804912,152.32938251046 365.94058402672,153.32063725902 392.53209334214,172.64049966052 C419.12360265757,191.96036206203 430.67219331086,224.2955016439 426.43423471101,252.67786677418 A 135,135 0 0,0 305.93569597291,165.13055381845Z" style="fill:black; stroke-width: 2; stroke: black; stroke-linejoin: round; stroke-linecap: round;"></path><path d="M430.10269656915,263.96823144175 C450.21401274665,284.43903760788 459.8771248241,317.38680631587 449.72007207776,348.64700033948 C439.56301933143,379.90719436308 412.37918489973,400.88266440421 384.0763503659,405.62275942784 A 135,135 0 0,0 430.10269656915,263.96823144175Z" style="fill:black; stroke-width: 2; stroke: black; stroke-linejoin: round; stroke-linecap: round;"></path><path d="M374.47219253484,412.60058853778 C361.21803741482,438.05341383355 332.86891313818,457.425 300,457.425 C267.13108686182,457.425 238.78196258518,438.05341383355 225.52780746516,412.60058853778 A 135,135 0 0,0 374.47219253484,412.60058853778Z" style="fill:black; stroke-width: 2; stroke: black; stroke-linejoin: round; stroke-linecap: round;"></path><path d="M215.9236496341,405.62275942784 C187.62081510027,400.88266440421 160.43698066857,379.90719436308 150.27992792224,348.64700033948 C140.1228751759,317.38680631587 149.78598725335,284.43903760788 169.89730343085,263.96823144175 A 135,135 0 0,0 215.9236496341,405.62275942784Z" style="fill:black; stroke-width: 2; stroke: black; stroke-linejoin: round; stroke-linecap: round;"></path><path d="M173.56576528899,252.67786677418 C169.32780668914,224.2955016439 180.87639734243,191.96036206203 207.46790665786,172.64049966052 C234.05941597328,153.32063725902 268.38067195088,152.32938251046 294.06430402709,165.13055381845 A 135,135 0 0,0 173.56576528899,252.67786677418Z" style="fill:black; stroke-width: 2; stroke: black; stroke-linejoin: round; stroke-linecap: round;"></path><path d="" style="fill:black; stroke-width: 2; stroke: black; stroke-linejoin: round; stroke-linecap: round;"></path><defs><clipPath id="orezspojeni"><path d="M305.93569597291,165.13055381845 A135,135 0 0,1 426.43423471101,252.67786677418 A135,135 0 0,1 430.10269656915,263.96823144175 A135,135 0 0,1 384.0763503659,405.62275942784 A135,135 0 0,1 374.47219253484,412.60058853778 A135,135 0 0,1 225.52780746516,412.60058853778 A135,135 0 0,1 215.9236496341,405.62275942784 A135,135 0 0,1 169.89730343085,263.96823144175 A135,135 0 0,1 173.56576528899,252.67786677418 A135,135 0 0,1 294.06430402709,165.13055381845 A135,135 0 0,1 305.93569597291,165.13055381845Z" transform="translate(0,0)"></path></clipPath></defs></g><!-- PESTÍK -->

<defs>
<pattern id="tecky" width="12" height="12" patternUnits="userSpaceOnUse" patternTransform="scale(0.65)">
<rect x="0" y="0" width="12" height="12" fill="white"></rect>
<circle id="kruh" cx="0" cy="0" r="1.75" fill="black"></circle>
<use xlink:href="#kruh" x="6" y="6"></use><use xlink:href="#kruh" x="0" y="12"></use><use xlink:href="#kruh" x="12" y="0"></use><use xlink:href="#kruh" x="12" y="12"></use>
</pattern>
</defs>


<g transform="translate (480,-150) rotate(-90)"><g id="nektariumkal"><ellipse cx="0" cy="0" rx="10" ry="10" style="fill: url(#tecky); stroke-width: 2; stroke: black"></ellipse></g></g>

<g transform="translate (560,-150) rotate(-90)"><g id="nektarium"><ellipse cx="0" cy="0" rx="10" ry="10" style="fill: url(#tecky); stroke-width: 2; stroke: black"></ellipse></g></g>

<g transform="translate(160 -150) rotate(-90)">
<g id="tycinky" transform="scale(0.7)">
<path d="m 4.118,-12.95 c -0.353,-0.56 -0.75,-1.1 -1.25,-1.54 -0.5,-0.44 -1.112,-0.76 -1.771,-0.84 -0.5242,-0.1 -1.0666,0 -1.5354,0.28 -0.4688,0.24 -0.8626,0.63 -1.1136,1.09 -0.251,0.47 -0.36,1.01 -0.307,1.53 0.05,0.53 0.267,1.04 0.606,1.44 -0.404,-0.55 -1.004,-0.94 -1.665,-1.1 -0.66,-0.16 -1.374,-0.1 -1.98,0.23 -0.606,0.31 -1.099,0.83 -1.366,1.46 -0.267,0.62 -0.307,1.339 -0.109,1.988 0.164,0.54 0.484,1.024 0.865,1.441 0.381,0.417 0.823,0.773 1.269,1.121 0.445,0.348 0.897,0.689 1.302,1.083 0.406,0.394 0.766,0.843 0.994,1.36 0.232,0.527 0.321,1.106 0.347,1.681 0.03,0.575 -0,1.1511 -0,1.7266457 0,0.5753543 0.03,1.1513543 0,1.7253543 -0.03,0.575 -0.115,1.155 -0.347,1.681 -0.228,0.517 -0.589,0.967 -0.995,1.361 -0.405,0.393 -0.857,0.735 -1.303,1.083 -0.445,0.348 -0.888,0.704 -1.268,1.122 -0.381,0.418 -0.701,0.902 -0.864,1.443 -0.196,0.649 -0.155,1.367 0.114,1.984 0.268,0.63 0.762,1.15 1.369,1.45 0.607,0.3 1.321,0.39 1.98,0.23 0.658,-0.16 1.256,-0.56 1.657,-1.11 -0.341,0.4 -0.558,0.91 -0.612,1.44 -0.05,0.53 0.05,1.07 0.305,1.54 0.252,0.46 0.6465,0.85 1.1168,1.09 0.4703,0.25 1.0145,0.34 1.5402,0.28 0.66,-0.1 1.272,-0.41 1.772,-0.85 0.5,-0.43 0.897,-0.98 1.249,-1.54 C 6.488,9.138 6.922,4.467 6.925,-0.0045 6.928,-4.48 6.497,-9.159 4.118,-12.95 Z" style="stroke:black;stroke-width:2.8571428571429;stroke-linejoin:round;fill:white"></path></g>
</g>

<g transform="translate(240 -150) rotate(-90)">
<g id="staminodium" transform="scale(0.7)">
<path d="M 9,0 A 9,12 0 1 1 -9,0 9,12 0 1 1 9,0 z" style="stroke:black;stroke-width:2.8571428571429;stroke-linejoin:round;fill:white"></path> </g>
</g>

<g transform="translate(320 -150) rotate(-90)">
<g id="staminek" transform="scale(0.7)">
<path d="M 9,0 A 9,12 0 1 1 -9,0 9,12 0 1 1 9,0 z" style="stroke:black;stroke-width:2.8571428571429;stroke-linejoin:round;fill:url(#tecky)"></path> </g>
</g>

<g transform="translate(400 -150) rotate(-90)">
<g id="tycvyn" transform="scale(0.7)" style="fill:black; stroke:black; stroke-width: 2.8571428571429;stroke-linejoin:round; stroke-linecap: round;">
<path transform="translate(-75 -75)" d="m 65.48016,75.000001 19.039685,0"></path>
<path transform="translate(-75 -75)" d="m 70.240081,66.750002 9.519842,16.5"></path>
<path transform="translate(-75 -75)" d="M 79.759925,66.750001 70.240083,83.25"></path></g>
</g>
<use xlink:href="#tycinky" x="300" y="186.25" transform="rotate(270 300,186.25)"></use><use xlink:href="#tycinky" x="346.26629314987" y="196.08420419315" transform="rotate(294 346.26629314987,196.08420419315)"></use><use xlink:href="#tycinky" x="384.53272389805" y="223.88639352668" transform="rotate(318 384.53272389805,223.88639352668)"></use><use xlink:href="#tycinky" x="408.18267872857" y="264.84931688985" transform="rotate(342 408.18267872857,264.84931688985)"></use><use xlink:href="#tycinky" x="413.12686559814" y="311.8901126967" transform="rotate(366 413.12686559814,311.8901126967)"></use><use xlink:href="#tycinky" x="398.51038968048" y="356.875" transform="rotate(390 398.51038968048,356.875)"></use><use xlink:href="#tycinky" x="366.86057244827" y="392.02568311015" transform="rotate(414 366.86057244827,392.02568311015)"></use><use xlink:href="#tycinky" x="323.64995483052" y="411.26428958347" transform="rotate(438 323.64995483052,411.26428958347)"></use><use xlink:href="#tycinky" x="276.35004516948" y="411.26428958347" transform="rotate(462 276.35004516948,411.26428958347)"></use><use xlink:href="#tycinky" x="233.13942755173" y="392.02568311015" transform="rotate(486 233.13942755173,392.02568311015)"></use><use xlink:href="#tycinky" x="201.48961031952" y="356.875" transform="rotate(510 201.48961031952,356.875)"></use><use xlink:href="#tycinky" x="186.87313440186" y="311.8901126967" transform="rotate(534 186.87313440186,311.8901126967)"></use><use xlink:href="#tycinky" x="191.81732127143" y="264.84931688985" transform="rotate(558 191.81732127143,264.84931688985)"></use><use xlink:href="#tycinky" x="215.46727610195" y="223.88639352668" transform="rotate(582 215.46727610195,223.88639352668)"></use><use xlink:href="#tycinky" x="253.73370685013" y="196.08420419315" transform="rotate(606 253.73370685013,196.08420419315)"></use><use xlink:href="#tycinky" x="389.34813893174" y="323.94076167198" transform="rotate(735 389.34813893174,323.94076167198)"></use><use xlink:href="#tycinky" x="365.40737725976" y="365.40737725976" transform="rotate(765 365.40737725976,365.40737725976)"></use><use xlink:href="#tycinky" x="323.94076167198" y="389.34813893174" transform="rotate(795 323.94076167198,389.34813893174)"></use><use xlink:href="#tycinky" x="276.05923832802" y="389.34813893174" transform="rotate(825 276.05923832802,389.34813893174)"></use><use xlink:href="#tycinky" x="234.59262274024" y="365.40737725976" transform="rotate(855 234.59262274024,365.40737725976)"></use><use xlink:href="#tycinky" x="210.65186106826" y="323.94076167198" transform="rotate(885 210.65186106826,323.94076167198)"></use><use xlink:href="#tycinky" x="210.65186106826" y="276.05923832802" transform="rotate(915 210.65186106826,276.05923832802)"></use><use xlink:href="#tycinky" x="234.59262274024" y="234.59262274024" transform="rotate(945 234.59262274024,234.59262274024)"></use><use xlink:href="#tycinky" x="276.05923832802" y="210.65186106826" transform="rotate(975 276.05923832802,210.65186106826)"></use><use xlink:href="#tycinky" x="323.94076167198" y="210.65186106826" transform="rotate(1005 323.94076167198,210.65186106826)"></use><use xlink:href="#tycinky" x="365.40737725976" y="234.59262274024" transform="rotate(1035 365.40737725976,234.59262274024)"></use><use xlink:href="#tycinky" x="389.34813893174" y="276.05923832802" transform="rotate(1065 389.34813893174,276.05923832802)"></use><use xlink:href="#tycinky" x="340.86732109001" y="241.63541684441" transform="rotate(1385 340.86732109001,241.63541684441)"></use><use xlink:href="#tycinky" x="368.8222151231" y="281.55914303645" transform="rotate(1425 368.8222151231,281.55914303645)"></use><use xlink:href="#tycinky" x="364.57442982636" y="330.11155114902" transform="rotate(1465 364.57442982636,330.11155114902)"></use><use xlink:href="#tycinky" x="330.11155114903" y="364.57442982636" transform="rotate(1505 330.11155114903,364.57442982636)"></use><use xlink:href="#tycinky" x="281.55914303645" y="368.8222151231" transform="rotate(1545 281.55914303645,368.8222151231)"></use><use xlink:href="#tycinky" x="241.63541684441" y="340.86732109001" transform="rotate(1585 241.63541684441,340.86732109001)"></use><use xlink:href="#tycinky" x="229.02112776096" y="293.79015332923" transform="rotate(1625 229.02112776096,293.79015332923)"></use><use xlink:href="#tycinky" x="249.61864184046" y="249.61864184046" transform="rotate(1665 249.61864184046,249.61864184046)"></use><use xlink:href="#tycinky" x="293.79015332923" y="229.02112776096" transform="rotate(1705 293.79015332923,229.02112776096)"></use>
<!-- VAJÍČKA II -->
<g transform="translate(80 -150) rotate(-90)">
<g id="vajicko" transform="
"><path d="M 14.814814,-3.75 C 11.851851,-3.75 0,0 0,0 0,0 11.851851,3.75 14.814814,3.75 17.777777,3.75 20,2.133038 20,0 20,-2.133038 17.777777,-3.75 14.814814,-3.75 z" style="fill:black"></path></g>
</g>

<g transform="translate(-240 -200)">
<g id="vajickootoc" transform="scale(1,-1)">
<use xlink:href="#vajicko" x="0" y="0"></use>
</g>
</g>

<g transform="translate(-240 -200)">
<g id="vajicka">
</g>
</g>

<g transform="translate(0 -150) rotate(-90)">
<g id="pesnes" transform="scale(0.65)">
<path style="fill: white; stroke: none;" d="m -13.46875,0.5 c -3.664921,-1.9e-7 -6.431075,2.9320928 -4.5625,6.40625 C -15.690664,11.257996 -7.4037718,14 0,14 11.045695,14 20,7.7319864 20,0 20,-7.7319864 11.045695,-14 0,-14 c -7.4037718,0 -15.690664,2.742004 -18.03125,7.09375 -1.868575,3.4741572 0.897579,6.40625019 4.5625,6.40625 z"></path>

<path style="stroke:none; stroke-width: 7.0769230769231;stroke-linejoin:round;fill: none; stroke-linecap: round;" d="M -6.78125,5.8125 C -7.1083562,2.1383112 -9.803829,0.50000019 -13.46875,0.5 c -3.664921,-1.9e-7 -6.431075,2.9320928 -4.5625,6.40625 C -15.690664,11.257996 -7.4037718,14 0,14 11.045695,14 20,7.7319864 20,0 20,-7.7319864 11.045695,-14 0,-14 c -7.4037718,0 -15.690664,2.742004 -18.03125,7.09375 -1.868575,3.4741572 0.897579,6.40625019 4.5625,6.40625 3.664921,-1.9e-7 6.3603938,-1.6383112 6.6875,-5.3125"></path>

<path style="stroke:black; stroke-width: 3.0769230769231;stroke-linejoin:round;fill: none; stroke-linecap: round;" d="M -6.78125,5.8125 C -7.1083562,2.1383112 -9.803829,0.50000019 -13.46875,0.5 c -3.664921,-1.9e-7 -6.431075,2.9320928 -4.5625,6.40625 C -15.690664,11.257996 -7.4037718,14 0,14 11.045695,14 20,7.7319864 20,0 20,-7.7319864 11.045695,-14 0,-14 c -7.4037718,0 -15.690664,2.742004 -18.03125,7.09375 -1.868575,3.4741572 0.897579,6.40625019 4.5625,6.40625 3.664921,-1.9e-7 6.3603938,-1.6383112 6.6875,-5.3125"></path>
</g>
</g>


<defs>
<clipPath clipPathUnits="userSpaceOnUse" id="orez">
</clipPath>
</defs>

<g clip-path="url(#orez)"></g><g><use xlink:href="#pesnes" x="338" y="300" transform="rotate(0 338,300)"></use><use xlink:href="#pesnes" x="333.64732897482" y="317.65948053766" transform="rotate(27.692307692308 333.64732897482,317.65948053766)"></use><use xlink:href="#pesnes" x="321.58646037578" y="331.27338690396" transform="rotate(55.384615384615 321.58646037578,331.27338690396)"></use><use xlink:href="#pesnes" x="304.5803938497" y="337.72293721573" transform="rotate(83.076923076923 304.5803938497,337.72293721573)"></use><use xlink:href="#pesnes" x="286.52501429238" y="335.53061722205" transform="rotate(110.76923076923 286.52501429238,335.53061722205)"></use><use xlink:href="#pesnes" x="271.5565915695" y="325.19866101315" transform="rotate(138.46153846154 271.5565915695,325.19866101315)"></use><use xlink:href="#pesnes" x="263.10421093781" y="309.09399524293" transform="rotate(166.15384615385 263.10421093781,309.09399524293)"></use><use xlink:href="#pesnes" x="263.10421093781" y="290.90600475707" transform="rotate(193.84615384615 263.10421093781,290.90600475707)"></use><use xlink:href="#pesnes" x="271.5565915695" y="274.80133898685" transform="rotate(221.53846153846 271.5565915695,274.80133898685)"></use><use xlink:href="#pesnes" x="286.52501429238" y="264.46938277795" transform="rotate(249.23076923077 286.52501429238,264.46938277795)"></use><use xlink:href="#pesnes" x="304.5803938497" y="262.27706278427" transform="rotate(276.92307692308 304.5803938497,262.27706278427)"></use><use xlink:href="#pesnes" x="321.58646037578" y="268.72661309604" transform="rotate(304.61538461538 321.58646037578,268.72661309604)"></use><use xlink:href="#pesnes" x="333.64732897482" y="282.34051946234" transform="rotate(332.30769230769 333.64732897482,282.34051946234)"></use><use xlink:href="#pesnes" x="277.44737710114" y="308.20848343982" transform="rotate(520 277.44737710114,308.20848343982)"></use><use xlink:href="#pesnes" x="277.44737710114" y="291.79151656018" transform="rotate(560 277.44737710114,291.79151656018)"></use><use xlink:href="#pesnes" x="288" y="279.21539030917" transform="rotate(600 288,279.21539030917)"></use><use xlink:href="#pesnes" x="304.16755626401" y="276.36461392771" transform="rotate(640 304.16755626401,276.36461392771)"></use><use xlink:href="#pesnes" x="318.38506663486" y="284.57309736752" transform="rotate(680 318.38506663486,284.57309736752)"></use><use xlink:href="#pesnes" x="324" y="300" transform="rotate(720 324,300)"></use><use xlink:href="#pesnes" x="318.38506663486" y="315.42690263248" transform="rotate(760 318.38506663486,315.42690263248)"></use><use xlink:href="#pesnes" x="304.16755626401" y="323.63538607229" transform="rotate(800 304.16755626401,323.63538607229)"></use><use xlink:href="#pesnes" x="288" y="320.78460969083" transform="rotate(840 288,320.78460969083)"></use><use xlink:href="#pesnes" x="290" y="300" transform="rotate(1980 290,300)"></use><use xlink:href="#pesnes" x="300" y="290" transform="rotate(2070 300,290)"></use><use xlink:href="#pesnes" x="310" y="300" transform="rotate(2160 310,300)"></use><use xlink:href="#pesnes" x="300" y="310" transform="rotate(2250 300,310)"></use></g>
<!-- VAJÍČKA II -->
</g></svg>
