
<svg xmlns:dc="http://purl.org/dc/elements/1.1/" xmlns:cc="http://creativecommons.org/ns#" xmlns:rdf="http://www.w3.org/1999/02/22-rdf-syntax-ns#" xmlns:svg="http://www.w3.org/2000/svg" xmlns="http://www.w3.org/2000/svg" xmlns:xlink="http://www.w3.org/1999/xlink" xmlns:inkscape="http://www.inkscape.org/namespaces/inkscape" height="600" width="600">

<!-- květní diagram vygenerovaný webovou aplikací od Tomáše Keberta, která byla vytvořena v rámci bakalářské práce na Pedagogické fakultě Univerzity Karlovy -->
<!-- floral diagram generated by a web application made by Tomáš Kebert, which was created as a part of bachelor thesis on the Faculty of Pedagogy, Charles University in Prague -->
<!-- https://sites.google.com/site/kvetnidiagramy/ -->

<g id="vrstva" inkscape:groupmode="layer">
<!-- <circle cx="300" cy="300" r="150" style="fill: grey;" /> -->

<!-- nadpisy klonovaných součástí -->
<text x="300" y="-250" style="fill: black; text-anchor: middle; dominant-baseline: central; font-weight: bold; font-size: 16pt;">Klonované součásti</text>
<text x="0" y="-210" style="fill: black; text-anchor: middle; dominant-baseline: central;">apokarpní<tspan x="0" y="-195">pestík</tspan></text>
<text x="80" y="-210" style="fill: black; text-anchor: middle; dominant-baseline: central;">vajíčko</text>
<text x="160" y="-210" style="fill: black; text-anchor: middle; dominant-baseline: central;">tyčinka</text>
<text x="240" y="-210" style="fill: black; text-anchor: middle; dominant-baseline: central;">staminodium</text>
<text x="320" y="-210" style="fill: black; text-anchor: middle; dominant-baseline: central;">staminodiální<tspan x="320" y="-195">nektárium</tspan></text>
<text x="400" y="-210" style="fill: black; text-anchor: middle; dominant-baseline: central;">chybějící<tspan x="400" y="-195">tyčinka</tspan></text>
<text x="480" y="-210" style="fill: black; text-anchor: middle; dominant-baseline: central;">nektárium<tspan x="480" y="-195">(na kalichu)</tspan></text>
<text x="560" y="-210" style="fill: black; text-anchor: middle; dominant-baseline: central;">nektárium<tspan x="560" y="-195">(na ostatních</tspan>
<tspan x="560" y="-180">obalech)</tspan></text>

<defs><pattern id="srafovani_pestik" height="7" width="10" patternUnits="userSpaceOnUse">
<rect height="10" width="10" y="0" x="0" style="fill: white;"></rect>
<rect height="2" width="10" y="0" x="0" style="fill: ;"></rect></pattern></defs><defs><pattern id="srafovani_0_167.5" patternTransform="rotate(270)" height="7" width="10" patternUnits="userSpaceOnUse">
<rect height="10" width="10" y="0" x="0" style="fill: white;"></rect>
<rect height="2" width="10" y="0" x="0" style="fill: black;"></rect></pattern></defs><defs><pattern id="srafovani_1_167.5" patternTransform="rotate(360)" height="7" width="10" patternUnits="userSpaceOnUse">
<rect height="10" width="10" y="0" x="0" style="fill: white;"></rect>
<rect height="2" width="10" y="0" x="0" style="fill: black;"></rect></pattern></defs><defs><pattern id="srafovani_2_167.5" patternTransform="rotate(450)" height="7" width="10" patternUnits="userSpaceOnUse">
<rect height="10" width="10" y="0" x="0" style="fill: white;"></rect>
<rect height="2" width="10" y="0" x="0" style="fill: black;"></rect></pattern></defs><defs><pattern id="srafovani_3_167.5" patternTransform="rotate(540)" height="7" width="10" patternUnits="userSpaceOnUse">
<rect height="10" width="10" y="0" x="0" style="fill: white;"></rect>
<rect height="2" width="10" y="0" x="0" style="fill: black;"></rect></pattern></defs><g transform="translate(0,0)"><path d="M188.24688654348,175.2302455209 C208.53843220172,140.89756285277 249.02275045698,110.075 300,110.075 C350.97724954302,110.075 391.46156779828,140.89756285277 411.75311345652,175.2302455209 A 167.5,167.5 0 0,0 188.24688654348,175.2302455209Z" style="fill:url(#srafovani_0_167.5); stroke-width: 2; stroke: black; stroke-linejoin: round; stroke-linecap: round;"></path><path d="M424.7697544791,188.24688654348 C459.10243714723,208.53843220172 489.925,249.02275045698 489.925,300 C489.925,350.97724954302 459.10243714723,391.46156779828 424.7697544791,411.75311345652 A 167.5,167.5 0 0,0 424.7697544791,188.24688654348Z" style="fill:url(#srafovani_1_167.5); stroke-width: 2; stroke: black; stroke-linejoin: round; stroke-linecap: round;"></path><path d="M411.75311345652,424.7697544791 C391.46156779828,459.10243714723 350.97724954302,489.925 300,489.925 C249.02275045698,489.925 208.53843220172,459.10243714723 188.24688654348,424.7697544791 A 167.5,167.5 0 0,0 411.75311345652,424.7697544791Z" style="fill:url(#srafovani_2_167.5); stroke-width: 2; stroke: black; stroke-linejoin: round; stroke-linecap: round;"></path><path d="M175.2302455209,411.75311345652 C140.89756285277,391.46156779828 110.075,350.97724954302 110.075,300 C110.075,249.02275045698 140.89756285277,208.53843220172 175.2302455209,188.24688654348 A 167.5,167.5 0 0,0 175.2302455209,411.75311345652Z" style="fill:url(#srafovani_3_167.5); stroke-width: 2; stroke: black; stroke-linejoin: round; stroke-linecap: round;"></path><path d="" style="fill:white; stroke-width: 2; stroke: black; stroke-linejoin: round; stroke-linecap: round;"></path></g><g transform="translate(-1.1368683772162E-13,0)"><path d="M307.41827428818,165.20397184418 C339.35900917278,154.20129776655 382.26399581549,159.63142575891 411.31628502829,188.68371497171 C440.36857424109,217.73600418451 445.79870223345,260.64099082722 434.79602815582,292.58172571182 A 135,135 0 0,0 307.41827428818,165.20397184418Z" style="fill:black; stroke-width: 2; stroke: black; stroke-linejoin: round; stroke-linecap: round;"></path><path d="M434.79602815582,307.41827428818 C445.79870223345,339.35900917278 440.36857424109,382.26399581549 411.31628502829,411.31628502829 C382.26399581549,440.36857424109 339.35900917278,445.79870223345 307.41827428818,434.79602815582 A 135,135 0 0,0 434.79602815582,307.41827428818Z" style="fill:black; stroke-width: 2; stroke: black; stroke-linejoin: round; stroke-linecap: round;"></path><path d="M292.58172571182,434.79602815582 C260.64099082722,445.79870223345 217.73600418451,440.36857424109 188.68371497171,411.31628502829 C159.63142575891,382.26399581549 154.20129776655,339.35900917278 165.20397184418,307.41827428818 A 135,135 0 0,0 292.58172571182,434.79602815582Z" style="fill:black; stroke-width: 2; stroke: black; stroke-linejoin: round; stroke-linecap: round;"></path><path d="M165.20397184418,292.58172571182 C154.20129776655,260.64099082722 159.63142575891,217.73600418451 188.68371497171,188.68371497171 C217.73600418451,159.63142575891 260.64099082722,154.20129776655 292.58172571182,165.20397184418 A 135,135 0 0,0 165.20397184418,292.58172571182Z" style="fill:black; stroke-width: 2; stroke: black; stroke-linejoin: round; stroke-linecap: round;"></path><path d="" style="fill:black; stroke-width: 2; stroke: black; stroke-linejoin: round; stroke-linecap: round;"></path><defs><clipPath id="orezspojeni"><path d="M307.41827428818,165.20397184418 A135,135 0 0,1 434.79602815582,292.58172571182 A135,135 0 0,1 434.79602815582,307.41827428818 A135,135 0 0,1 307.41827428818,434.79602815582 A135,135 0 0,1 292.58172571182,434.79602815582 A135,135 0 0,1 165.20397184418,307.41827428818 A135,135 0 0,1 165.20397184418,292.58172571182 A135,135 0 0,1 292.58172571182,165.20397184418 A135,135 0 0,1 307.41827428818,165.20397184418Z" transform="translate(-1.1368683772162E-13,0)"></path></clipPath></defs></g><!-- PESTÍK -->

<defs>
<pattern id="tecky" width="12" height="12" patternUnits="userSpaceOnUse" patternTransform="scale(0.65)">
<rect x="0" y="0" width="12" height="12" fill="white"></rect>
<circle id="kruh" cx="0" cy="0" r="1.75" fill="black"></circle>
<use xlink:href="#kruh" x="6" y="6"></use><use xlink:href="#kruh" x="0" y="12"></use><use xlink:href="#kruh" x="12" y="0"></use><use xlink:href="#kruh" x="12" y="12"></use>
</pattern>
</defs>


<g transform="translate (480,-150) rotate(-90)"><g id="nektariumkal"><ellipse cx="0" cy="0" rx="10" ry="10" style="fill: url(#tecky); stroke-width: 2; stroke: black"></ellipse></g></g>

<g transform="translate (560,-150) rotate(-90)"><g id="nektarium"><ellipse cx="0" cy="0" rx="10" ry="10" style="fill: url(#tecky); stroke-width: 2; stroke: black"></ellipse></g></g>

<g transform="translate(160 -150) rotate(-90)">
<g id="tycinky" transform="scale(1.5)">
<path d="M 4 -12 C 1.3175833 -12 -1.0071477 -10.381658 -2 -8.0625 C -2.9022902 -8.9494043 -4.1348496 -9.5 -5.5 -9.5 C -8.2614235 -9.5 -10.5 -7.2614237 -10.5 -4.5 C -10.5 -2.5050579 -9.3147596 -0.8022801 -7.625 0 C -9.3147596 0.8022801 -10.5 2.5050579 -10.5 4.5 C -10.5 7.2614237 -8.2614235 9.5 -5.5 9.5 C -4.1348496 9.5 -2.9022902 8.9494043 -2 8.0625 C -1.0071479 10.381658 1.3175838 12 4 12 C 7.5898507 12 10.5 9.089851 10.5 5.5 C 10.5 3.176447 9.2710463 1.1492317 7.4375 0 C 9.2710466 -1.1492319 10.5 -3.1764466 10.5 -5.5 C 10.5 -9.0898516 7.5898513 -12 4 -12 z" style="stroke:black;stroke-width:1.3333333333333;stroke-linejoin:round;fill:white"></path> </g>
</g>

<g transform="translate(240 -150) rotate(-90)">
<g id="staminodium" transform="scale(1.5)">
<path d="M 9,0 A 9,12 0 1 1 -9,0 9,12 0 1 1 9,0 z" style="stroke:black;stroke-width:1.3333333333333;stroke-linejoin:round;fill:white"></path> </g>
</g>

<g transform="translate(320 -150) rotate(-90)">
<g id="staminek" transform="scale(1.5)">
<path d="M 9,0 A 9,12 0 1 1 -9,0 9,12 0 1 1 9,0 z" style="stroke:black;stroke-width:1.3333333333333;stroke-linejoin:round;fill:url(#tecky)"></path> </g>
</g>

<g transform="translate(400 -150) rotate(-90)">
<g id="tycvyn" transform="scale(1.5)" style="fill:black; stroke:black; stroke-width: 1.3333333333333;stroke-linejoin:round; stroke-linecap: round;">
<path transform="translate(-75 -75)" d="m 65.48016,75.000001 19.039685,0"></path>
<path transform="translate(-75 -75)" d="m 70.240081,66.750002 9.519842,16.5"></path>
<path transform="translate(-75 -75)" d="M 79.759925,66.750001 70.240083,83.25"></path></g>
</g>
<use xlink:href="#tycinky" x="300" y="207.5" transform="rotate(270 300,207.5)"></use><use xlink:href="#tycinky" x="392.5" y="300" transform="rotate(360 392.5,300)"></use><use xlink:href="#tycinky" x="300" y="392.5" transform="rotate(450 300,392.5)"></use><use xlink:href="#tycinky" x="207.5" y="300" transform="rotate(540 207.5,300)"></use>
<!-- VAJÍČKA II -->
<g transform="translate(80 -150) rotate(-90)">
<g id="vajicko" transform="
scale(1.15,1.15)"><path d="M 14.814814,-3.75 C 11.851851,-3.75 0,0 0,0 0,0 11.851851,3.75 14.814814,3.75 17.777777,3.75 20,2.133038 20,0 20,-2.133038 17.777777,-3.75 14.814814,-3.75 z" style="fill:black"></path></g>
</g>

<g transform="translate(-240 -200)">
<g id="vajickootoc" transform="scale(1,-1)">
<use xlink:href="#vajicko" x="0" y="0"></use>
</g>
</g>

<g transform="translate(-240 -200)">
<g id="vajicka">
<use xlink:href="#vajicko" x="-0.24792514599476" y="-1.7640790772288" transform="rotate(-16 -0.24792514599476,-1.7640790772288)"></use><use xlink:href="#vajickootoc" x="-0.24792514599476" y="1.7640790772288" transform="rotate(16 -0.24792514599476,1.7640790772288)"></use></g>
</g>

<g transform="translate(0 -150) rotate(-90)">
<g id="pesnes" transform="scale(1)">
<path style="fill: url(#srafovani_pestik); stroke: none;" d="m -13.46875,0.5 c -3.664921,-1.9e-7 -6.431075,2.9320928 -4.5625,6.40625 C -15.690664,11.257996 -7.4037718,14 0,14 11.045695,14 20,7.7319864 20,0 20,-7.7319864 11.045695,-14 0,-14 c -7.4037718,0 -15.690664,2.742004 -18.03125,7.09375 -1.868575,3.4741572 0.897579,6.40625019 4.5625,6.40625 z"></path>

<path style="stroke:none; stroke-width: 6;stroke-linejoin:round;fill: none; stroke-linecap: round;" d="m -13.46875,0.5 c -3.664921,-1.9e-7 -6.431075,2.9320928 -4.5625,6.40625 C -15.690664,11.257996 -7.4037718,14 0,14 11.045695,14 20,7.7319864 20,0 20,-7.7319864 11.045695,-14 0,-14 c -7.4037718,0 -15.690664,2.742004 -18.03125,7.09375 -1.868575,3.4741572 0.897579,6.40625019 4.5625,6.40625 z"></path>

<path style="stroke:black; stroke-width: 2;stroke-linejoin:round;fill: none; stroke-linecap: round;" d="m -13.46875,0.5 c -3.664921,-1.9e-7 -6.431075,2.9320928 -4.5625,6.40625 C -15.690664,11.257996 -7.4037718,14 0,14 11.045695,14 20,7.7319864 20,0 20,-7.7319864 11.045695,-14 0,-14 c -7.4037718,0 -15.690664,2.742004 -18.03125,7.09375 -1.868575,3.4741572 0.897579,6.40625019 4.5625,6.40625 z"></path>
<use xlink:href="#vajicka" x="-7" y="0"></use><path style="fill: none; stroke-linecap: round; stroke-width:3; stroke:black" d="m -13,0 5,0"></path><path style="fill: none; stroke-linecap: round; stroke-width:3; stroke:black" d="M -6.8674175,-4.5 C -6.8674175,-4.5 -8,-1.5467796 -8,0 c 0,1.5467796 1.1325825,4.5 1.1325825,4.5"></path></g>
</g>

<path d="M300,334.72222222222 A30.864197530864,41.666666666667 180 1,1 300,265.27777777778 A30.864197530864,41.666666666667 360 1,1 300,334.72222222222 Z" style="fill: url(#srafovani_pestik); stroke: black; stroke-linejoin: round; stroke-width: 2"></path>
<defs>
<clipPath clipPathUnits="userSpaceOnUse" id="orez">
<path d="M300,334.72222222222 A30.864197530864,41.666666666667 180 1,1 300,265.27777777778 A30.864197530864,41.666666666667 360 1,1 300,334.72222222222 Z" style="fill: white;"></path></clipPath>
</defs>

<circle cx="300" cy="300" r="6.4" style="fill:black"></circle><g clip-path="url(#orez)"><path d="M300,300 L300,370.13888888889M300,300 L300,229.86111111111" style="fill: none; stroke:black; stroke-linecap: round; stroke-width: 4;"></path></g>
<!-- VAJÍČKA II -->
<g clip-path="url(#orez)"><use xlink:href="#vajicka" x="293.6" y="300" transform="rotate(180 293.6,300)"></use><use xlink:href="#vajicka" x="306.4" y="300" transform="rotate(360 306.4,300)"></use></g></g></svg>
